:SAMPLES-PER-SECOND 30
:FULLY-SPECIFIED
:DEGREES
472
root  -54.286 34.4466 30.3656 -161.368 58.145 -167.582
RightUpLeg  -8.50129 -14.4138 10.1246
RightLeg  7.78831 -0.808216 -0.0568367
RightFoot  0.36417 -0.00557198 0.158034
RightToes  -28.4103 -0.131485 -0.239021
Spine  0.684238 1.03937 -1.05115
Spine1  1.29441 2.22082 -1.42559
HEad  -67.8595 -1.02721 5.89361
LeftShoulder1  -1.94126e-019 -3.10601e-018 -2.51263e-017
LeftArm  -18.1275 25.3707 -74.0024
LeftForeArm  21.4112 -14.4298 -2.47392
LeftHand  -0.34225 0.583258 8.27482
RightShoulder  -4.96962e-017 0 -2.36833e-017
RightArm  -15.2971 -5.10665 77.1326
RightForeArm  53.3843 22.7188 2.19483
RightHand  -0.431608 -0.651065 -10.5572
LeftUpLeg  -29.1252 13.4471 6.56879
LeftLeg  34.679 15.8955 9.33899
LeftFoot  -1.78421 -0.00910615 -0.423243
LeftToes  -12.1607 1.9075e-006 4.29692e-008
473
root  -54.4803 34.4763 30.3227 -161.989 58.0552 -167.989
RightUpLeg  -8.24707 -13.7923 9.75779
RightLeg  7.32478 -1.76203 -0.110873
RightFoot  0.839545 -0.00371842 0.140145
RightToes  -27.6725 -0.131207 -0.238722
Spine  0.602273 0.953003 -0.949757
Spine1  1.13421 2.04189 -1.22691
HEad  -65.5454 -0.175918 4.8995
LeftShoulder1  -1.94126e-019 -3.10601e-018 -2.51263e-017
LeftArm  -19.4196 26.66 -77.0244
LeftForeArm  19.6018 -16.2308 -2.76284
LeftHand  -0.301366 0.191376 6.76817
RightShoulder  -4.96962e-017 0 -2.36833e-017
RightArm  -12.9972 -7.63326 76.5364
RightForeArm  52.7426 26.0062 2.86931
RightHand  -0.509739 0.71948 -9.78581
LeftUpLeg  -27.192 11.4834 7.42942
LeftLeg  35.8476 16.2257 9.96137
LeftFoot  -2.79822 -0.0233753 -0.795484
LeftToes  -10.721 1.9075e-006 4.29692e-008
474
root  -54.6867 34.5155 30.2229 -162.823 57.8061 -168.688
RightUpLeg  -8.01335 -13.9834 9.20565
RightLeg  6.88082 -2.17636 -0.120268
RightFoot  1.37584 -0.000891732 0.113492
RightToes  -27.6018 -0.131018 -0.238515
Spine  0.502253 0.885688 -0.869011
Spine1  0.938052 1.89649 -1.06508
HEad  -64.3245 0.39258 3.88362
LeftShoulder1  -1.94126e-019 -3.10601e-018 -2.51263e-017
LeftArm  -19.2959 28.0598 -79.9089
LeftForeArm  16.0953 -19.2908 -3.32886
LeftHand  -0.277254 0.72111 6.87531
RightShoulder  -4.96962e-017 0 -2.36833e-017
RightArm  -12.1547 -10.3224 76.09
RightForeArm  53.4761 28.2307 3.29503
RightHand  -0.581142 1.8117 -9.53166
LeftUpLeg  -24.8254 9.56142 7.98356
LeftLeg  36.2396 18.117 11.2243
LeftFoot  -3.55442 -0.0427775 -1.21703
LeftToes  -9.80235 1.9075e-006 4.29692e-008
475
root  -54.9002 34.5604 30.0916 -163.374 57.4732 -169.368
RightUpLeg  -8.06069 -14.1996 8.62199
RightLeg  6.48739 -2.3826 -0.115367
RightFoot  1.95304 0.00236376 0.0829004
RightToes  -27.9861 -0.131148 -0.238649
Spine  0.339739 0.86654 -0.843188
Spine1  0.617493 1.83889 -1.00726
HEad  -63.9674 0.616774 3.24939
LeftShoulder1  -1.94126e-019 -3.10601e-018 -2.51263e-017
LeftArm  -18.06 30.1318 -82.1149
LeftForeArm  15.2327 -24.5477 -4.3964
LeftHand  -0.26879 0.927201 6.94826
RightShoulder  -4.96962e-017 0 -2.36833e-017
RightArm  -12.2468 -13.0008 75.948
RightForeArm  53.5215 29.051 3.46595
RightHand  -0.590355 1.71756 -9.80049
LeftUpLeg  -22.2751 8.38448 8.21697
LeftLeg  35.3074 19.4702 11.5944
LeftFoot  -4.51479 -0.0740368 -1.71644
LeftToes  -7.54199 1.9075e-006 4.29692e-008
476
root  -55.1016 34.5999 29.9375 -163.773 57.1314 -169.962
RightUpLeg  -8.26634 -14.2223 8.06842
RightLeg  6.3669 -2.76712 -0.128305
RightFoot  2.36133 0.00572837 0.0499891
RightToes  -28.2154 -0.131827 -0.239373
Spine  0.147871 0.852527 -0.841468
Spine1  0.239615 1.79161 -0.995418
HEad  -64.0021 0.725548 2.96817
LeftShoulder1  -1.94126e-019 -3.10601e-018 -2.51263e-017
LeftArm  -17.7484 32.5255 -83.1946
LeftForeArm  14.9635 -29.5156 -5.53812
LeftHand  -0.0277184 5.27829 11.1985
RightShoulder  -4.96962e-017 0 -2.36833e-017
RightArm  -12.56 -15.3994 75.9683
RightForeArm  52.7495 28.229 3.3257
RightHand  -0.551583 1.11482 -9.96844
LeftUpLeg  -19.565 8.76934 8.14894
LeftLeg  32.8622 19.21 10.4068
LeftFoot  -4.17668 -0.0610451 -1.5124
LeftToes  -9.0197 1.9075e-006 4.29692e-008
477
root  -55.3186 34.6086 29.7574 -164.121 56.5409 -170.518
RightUpLeg  -8.74635 -14.1867 7.52803
RightLeg  6.76702 -3.45873 -0.18475
RightFoot  2.41423 0.00853344 0.0213623
RightToes  -28.4963 -0.133704 -0.24138
Spine  -0.0420505 0.780427 -0.847858
Spine1  -0.131127 1.63292 -0.999144
HEad  -64.1647 0.765327 3.01848
LeftShoulder1  -1.94126e-019 -3.10601e-018 -2.51263e-017
LeftArm  -19.8678 34.4528 -82.7508
LeftForeArm  15.5249 -30.5775 -5.76249
LeftHand  -0.158901 3.83739 10.994
RightShoulder  -4.96962e-017 0 -2.36833e-017
RightArm  -14.6561 -16.7602 76.4813
RightForeArm  53.1147 24.5674 2.56493
RightHand  -0.54825 1.12507 -9.89439
LeftUpLeg  -16.8639 9.35904 7.90557
LeftLeg  29.3329 18.0021 8.4376
LeftFoot  -3.75189 -0.0445956 -1.19994
LeftToes  -19.1062 1.9075e-006 4.29692e-008
478
root  -55.6268 34.6346 29.5354 -165.548 55.2789 -172.327
RightUpLeg  -9.94118 -14.6807 6.26423
RightLeg  8.58582 -4.34336 -0.37056
RightFoot  1.85775 0.00812139 0.0320462
RightToes  -28.7439 -0.135501 -0.243265
Spine  -0.179116 0.568855 -1.01251
Spine1  -0.400001 1.20284 -1.32294
HEad  -64.3774 0.279472 3.16654
LeftShoulder1  -1.94126e-019 -3.10601e-018 -2.51263e-017
LeftArm  -17.9504 35.1359 -80.8442
LeftForeArm  16.03 -29.4194 -5.45045
LeftHand  -0.27538 2.00547 9.25632
RightShoulder  -4.96962e-017 0 -2.36833e-017
RightArm  -17.7556 -17.7919 77.0331
RightForeArm  53.9705 19.6055 1.57909
RightHand  -0.532137 1.07813 -9.67386
LeftUpLeg  -15.0606 8.80186 6.7104
LeftLeg  25.4205 16.2846 6.376
LeftFoot  -4.14584 -0.0475575 -1.15231
LeftToes  -21.6022 1.9075e-006 4.29692e-008
479
root  -56.0095 34.6404 29.2922 -167.611 53.2026 -174.842
RightUpLeg  -11.9495 -15.5128 4.4971
RightLeg  12.2653 -5.70962 -0.858624
RightFoot  0.542952 0.00159683 0.126876
RightToes  -29.0907 -0.137356 -0.245197
Spine  -0.125091 0.28055 -1.3017
Spine1  -0.29885 0.635563 -1.92007
HEad  -65.151 -0.715463 3.63415
LeftShoulder1  -1.94126e-019 -3.10601e-018 -2.51263e-017
LeftArm  -14.6112 34.5433 -78.2563
LeftForeArm  18.2863 -28.067 -5.00742
LeftHand  -0.291139 0.0634062 6.39335
RightShoulder  -4.96962e-017 0 -2.36833e-017
RightArm  -22.2655 -18.3991 77.3036
RightForeArm  55.8898 14.3036 1.21764
RightHand  -0.484335 0.513111 -9.61067
LeftUpLeg  -14.661 8.46472 4.74425
LeftLeg  22.6389 14.7106 4.98179
LeftFoot  -2.89819 -0.0207152 -0.65732
LeftToes  -21.0191 1.9075e-006 4.29692e-008
